<svg width="149" height="92" viewBox="0 0 149 92" fill="none" xmlns="http://www.w3.org/2000/svg">
<g clip-path="url(#clip0)">
<path fill-rule="evenodd" clip-rule="evenodd" d="M149.08 85.14C149.08 88.89 145.97 91.93 142.09 91.93H6.97C3.12 91.93 0 88.89 0 85.14V6.83C0 3.07 3.13 0 6.97 0H142.09C145.97 0 149.08 3.08 149.08 6.83V85.14ZM48.04 69.24C49.35 69.13 54.62 69.13 55.93 69.24V27.43C54.62 27.55 49.35 27.55 48.04 27.43V69.24ZM40.23 67.58L41.47 62.86L40.74 62.54C38.16 64.91 34.06 66.65 30.52 66.65C21.72 66.65 16.92 60.01 16.92 50.63C16.92 42.51 20.74 33.79 30.23 33.79C33.98 33.79 37.58 35.9 39.7 38.84H40.52C40.7257 38.0171 40.897 37.1923 41.0689 36.3639L41.0689 36.3639L41.069 36.3638L41.069 36.3637L41.069 36.3637L41.069 36.3636L41.069 36.3635L41.069 36.3635L41.069 36.3634L41.069 36.3633L41.0691 36.3632L41.0691 36.3631L41.0691 36.363L41.0691 36.3629L41.0692 36.3629C41.29 35.299 41.5121 34.2292 41.81 33.15C38.5 31.42 33.98 30.49 30.18 30.49C17.74 30.49 7.43 37.03 7.43 51.42C7.43 62.69 16.69 69.92 28.93 69.92C32.74 69.92 36.78 69.27 40.23 67.58ZM84.62 64.38C84.62 66.43 85.23 67.08 87.52 66.99V68.23C86.17 68.86 83.97 69.76 82.39 69.76C79.7 69.76 77.66 68.1 76.74 65.71C75.26 68.22 72.38 69.76 69.42 69.76C64.75 69.76 61.28 67.27 61.28 62.49C61.28 57.24 64.56 55.72 71.72 54.04L71.8694 54.0058C73.262 53.6873 74.6829 53.3623 75.88 52.59L76.73 50.47C76.73 47.86 73.93 45.66 71.31 45.66C67.67 45.66 64.67 48.04 64.32 49.04H63.94L63.18 45.76C65.92 43.32 70.17 42.05 73.75 42.05C78.56 42.05 84.6 43.93 84.6 49.43V64.38H84.62ZM75.0834 55.402L75.0832 55.402C73.7614 55.832 72.2219 56.3328 71.11 57.16C69.61 58.33 69.29 59.99 69.29 61.76C69.29 63.78 69.96 66.16 72.4 66.16C75.9 66.16 76.63 62.93 76.76 60.2V54.81H76.75C76.2896 55.0096 75.711 55.1978 75.0834 55.402ZM111.5 42.51C109.39 49.04 106.99 55.37 104.51 61.63L98.12 42.51C96.67 42.65 90.81 42.65 89.36 42.51C93.0714 51.5391 96.1956 60.2497 99.3978 69.1781L99.3979 69.1785L99.398 69.1787L99.42 69.24H105.21C107.009 63.8177 109.147 58.7534 111.26 53.7449C111.743 52.6015 112.224 51.4611 112.7 50.32L112.805 50.0695L112.805 50.0694L112.806 50.0692C113.697 47.95 114.551 45.9193 115.6 43.87L115.99 42.51H111.5ZM127.44 55.95C127.28 61.62 129.31 66.16 135.35 66.16C137.69 66.16 140.25 65.13 142.05 63.69L142.72 64.18L141.46 67.27C139.18 68.77 136.1 69.76 133.31 69.76C123.84 69.76 118.95 64.25 118.95 55.24C118.95 47.59 123.79 42.05 132.05 42.05C140.99 42.05 144.35 48.04 143.75 55.94H127.44V55.95ZM135.88 53.29C135.88 50.34 135.52 44.54 132.13 44.54C127.94 44.54 127.56 50.35 127.45 53.29H135.88ZM145.61 21.45H63.17V37.26H145.61V21.45ZM146.61 20.45V38.26H62.17V20.45H146.61ZM68.45 34.17L66.71 32.95H66.61L66.41 34.02L68.14 34.66C69.61 34.66 70.79 33.67 70.79 32.03C70.79 30.7671 69.8846 30.3882 69.011 30.0227C68.1967 29.6819 67.41 29.3527 67.41 28.33L68.78 27L70.1 27.97H70.2L70.48 27.06L68.94 26.51C67.7 26.51 66.61 27.2 66.61 28.69C66.61 30.0498 67.5279 30.442 68.3998 30.8147C69.1887 31.1519 69.94 31.473 69.94 32.48L68.45 34.17ZM78.25 26.68L78.72 26.71L79.18 26.68V34.52L78.72 34.5L78.25 34.52V26.68ZM88.68 34.17L86.94 32.95H86.83L86.65 34.02L88.35 34.66C89.82 34.66 91 33.67 91 32.03C91 30.7671 90.0946 30.3882 89.221 30.0227C88.4067 29.6819 87.62 29.3527 87.62 28.33L89.01 27L90.29 27.97H90.41L90.71 27.06L89.2 26.51C87.9 26.51 86.81 27.2 86.81 28.69C86.81 30.0498 87.7361 30.442 88.6159 30.8147C89.4119 31.1519 90.17 31.473 90.17 32.48L88.68 34.17ZM100.93 34.55L100.48 34.52L100.01 34.55V27.2C99.0255 27.2 98.3817 27.2831 97.7984 27.3584L97.63 27.38L97.69 27.01L97.63 26.67H103.19L103.15 27.01L103.19 27.38L100.93 27.2V34.55ZM112.91 30.07H111.22V27.2H112.06H113.14L114.09 27.38L114.05 27.02L114.09 26.68H110.28V34.5H114.18L114.1 34.11L114.18 33.79L113.15 33.9L111.22 33.95V30.59H112.91L113.85 30.65L113.81 30.32L113.85 30.04L112.91 30.07ZM128.76 26.68C129.02 29.5 129.31 32.31 129.6 34.53L129.1 34.51L128.61 34.53C128.564 33.9779 128.519 33.4155 128.475 32.8637C128.335 31.1166 128.204 29.4764 128.09 28.61C126.83 30.96 125.9 32.82 125.25 34.39H125.15L124.56 33.07C123.88 31.58 123.16 30.07 122.39 28.61C122.332 29.1797 122.269 29.748 122.208 30.3026L122.208 30.3036V30.3037C122.027 31.9392 121.86 33.4548 121.86 34.53L121.5 34.51L121.12 34.53C121.41 32.71 122.04 27.88 122.17 26.68H122.44C123.26 28.51 124.3 30.65 125.49 32.71C126.46 30.73 127.47 28.73 128.55 26.68H128.76ZM142.5 34.5L143.07 34.52L139.81 26.51H139.57L136.27 34.52L136.65 34.5L137.03 34.52C137.32 33.43 137.69 32.41 138.1 31.42H140.82C141.23 32.48 141.62 33.57 141.94 34.52L142.5 34.5ZM138.3 30.93L139.48 28L140.66 30.93H138.3Z" fill="white"/>
</g>
<defs>
<clipPath id="clip0">
<rect width="149" height="92" fill="white"/>
</clipPath>
</defs>
</svg>
