<svg width="147" height="121" viewBox="0 0 147 121" fill="none" xmlns="http://www.w3.org/2000/svg">
<path d="M36.35 105.26V99.26C36.35 97 34.91 95.48 32.59 95.46C31.37 95.44 30.11 95.82 29.23 97.16C28.57 96.1 27.53 95.46 26.07 95.46C25.05 95.46 24.05 95.76 23.27 96.88V95.7H21.19V105.26H23.29V99.96C23.29 98.3 24.21 97.42 25.63 97.42C27.01 97.42 27.71 98.32 27.71 99.94V105.26H29.81V99.96C29.81 98.3 30.77 97.42 32.15 97.42C33.57 97.42 34.25 98.32 34.25 99.94V105.26H36.35V105.26ZM67.42 95.7H64.02V92.8H61.92V95.7H59.98V97.6H61.92V101.96C61.92 104.18 62.78 105.5 65.24 105.5C66.14 105.5 67.18 105.22 67.84 104.76L67.24 102.98C66.62 103.34 65.94 103.52 65.4 103.52C64.36 103.52 64.02 102.88 64.02 101.92V97.6H67.42V95.7ZM85.16 95.46C83.96 95.46 83.18 96.02 82.64 96.86V95.7H80.58V105.26H82.66V99.9C82.66 98.32 83.34 97.44 84.7 97.44C85.12 97.44 85.56 97.5 86 97.68L86.64 95.72C86.18 95.54 85.58 95.46 85.16 95.46ZM58.34 96.46C57.34 95.8 55.96 95.46 54.44 95.46C52.02 95.46 50.46 96.62 50.46 98.52C50.46 100.08 51.62 101.04 53.76 101.34L54.74 101.48C55.88 101.64 56.42 101.94 56.42 102.48C56.42 103.22 55.66 103.64 54.24 103.64C52.8 103.64 51.76 103.18 51.06 102.64L50.08 104.26C51.22 105.1 52.66 105.5 54.22 105.5C56.98 105.5 58.58 104.2 58.58 102.38C58.58 100.7 57.32 99.82 55.24 99.52L54.26 99.38C53.36 99.26 52.64 99.08 52.64 98.44C52.64 97.74 53.32 97.32 54.46 97.32C55.68 97.32 56.86 97.78 57.44 98.14L58.34 96.46ZM114.05 95.46C112.85 95.46 112.07 96.02 111.53 96.86V95.7H109.47V105.26H111.55V99.9C111.55 98.32 112.23 97.44 113.59 97.44C114.01 97.44 114.45 97.5 114.89 97.68L115.53 95.72C115.07 95.54 114.47 95.46 114.05 95.46ZM87.26 100.48C87.26 103.38 89.28 105.5 92.36 105.5C93.8 105.5 94.76 105.18 95.8 104.36L94.8 102.68C94.02 103.24 93.2 103.54 92.3 103.54C90.64 103.52 89.42 102.32 89.42 100.48C89.42 98.64 90.64 97.44 92.3 97.42C93.2 97.42 94.02 97.72 94.8 98.28L95.8 96.6C94.76 95.78 93.8 95.46 92.36 95.46C89.28 95.46 87.26 97.58 87.26 100.48ZM106.74 100.48V95.7H104.66V96.86C104 96 103 95.46 101.64 95.46C98.96 95.46 96.86 97.56 96.86 100.48C96.86 103.4 98.96 105.5 101.64 105.5C103 105.5 104 104.96 104.66 104.1V105.26H106.74V100.48ZM99 100.48C99 98.8 100.1 97.42 101.9 97.42C103.62 97.42 104.78 98.74 104.78 100.48C104.78 102.22 103.62 103.54 101.9 103.54C100.1 103.54 99 102.16 99 100.48ZM73.9 95.46C71.1 95.46 69.14 97.5 69.14 100.48C69.14 103.52 71.18 105.5 74.04 105.5C75.48 105.5 76.8 105.14 77.96 104.16L76.94 102.62C76.14 103.26 75.12 103.62 74.16 103.62C72.82 103.62 71.6 103 71.3 101.28H78.4C78.42 101.02 78.44 100.76 78.44 100.48C78.42 97.5 76.58 95.46 73.9 95.46ZM73.86 97.32C75.2 97.32 76.06 98.16 76.28 99.64H71.32C71.54 98.26 72.38 97.32 73.86 97.32ZM126.03 100.48V91.86H123.95V96.86C123.29 96 122.29 95.46 120.93 95.46C118.25 95.46 116.15 97.56 116.15 100.48C116.15 103.4 118.25 105.5 120.93 105.5C122.29 105.5 123.29 104.96 123.95 104.1V105.26H126.03V100.48ZM118.29 100.48C118.29 98.8 119.39 97.42 121.19 97.42C122.91 97.42 124.07 98.74 124.07 100.48C124.07 102.22 122.91 103.54 121.19 103.54C119.39 103.54 118.29 102.16 118.29 100.48ZM48.06 100.48V95.7H45.98V96.86C45.32 96 44.32 95.46 42.96 95.46C40.28 95.46 38.18 97.56 38.18 100.48C38.18 103.4 40.28 105.5 42.96 105.5C44.32 105.5 45.32 104.96 45.98 104.1V105.26H48.06V100.48ZM40.32 100.48C40.32 98.8 41.42 97.42 43.22 97.42C44.94 97.42 46.1 98.74 46.1 100.48C46.1 102.22 44.94 103.54 43.22 103.54C41.42 103.54 40.32 102.16 40.32 100.48ZM129.5 103.87C129.63 103.87 129.76 103.89 129.88 103.94C130 103.99 130.1 104.06 130.19 104.14C130.28 104.23 130.35 104.33 130.4 104.44C130.45 104.55 130.48 104.68 130.48 104.81C130.48 104.94 130.45 105.06 130.4 105.18C130.35 105.29 130.28 105.4 130.19 105.48C130.1 105.57 130 105.63 129.88 105.68C129.76 105.73 129.64 105.76 129.5 105.76C129.36 105.76 129.24 105.73 129.12 105.68C129 105.63 128.9 105.56 128.81 105.48C128.72 105.39 128.65 105.29 128.6 105.18C128.55 105.07 128.52 104.94 128.52 104.81C128.52 104.68 128.55 104.56 128.6 104.44C128.65 104.32 128.72 104.22 128.81 104.14C128.9 104.05 129 103.99 129.12 103.94C129.24 103.9 129.36 103.87 129.5 103.87ZM129.5 105.56C129.6 105.56 129.7 105.54 129.79 105.5C129.88 105.46 129.96 105.41 130.02 105.34C130.09 105.27 130.14 105.19 130.18 105.1C130.22 105.01 130.24 104.91 130.24 104.81C130.24 104.71 130.22 104.61 130.18 104.52C130.14 104.43 130.09 104.35 130.02 104.28C129.95 104.21 129.88 104.16 129.79 104.12C129.7 104.08 129.61 104.06 129.5 104.06C129.4 104.06 129.3 104.08 129.21 104.12C129.12 104.16 129.04 104.21 128.97 104.28C128.9 104.35 128.85 104.43 128.81 104.52C128.77 104.61 128.75 104.71 128.75 104.81C128.75 104.91 128.77 105.01 128.81 105.1C128.85 105.19 128.9 105.27 128.97 105.34C129.04 105.41 129.12 105.46 129.21 105.5C129.3 105.54 129.4 105.56 129.5 105.56ZM129.56 104.38C129.67 104.38 129.76 104.41 129.82 104.46C129.88 104.51 129.91 104.58 129.91 104.67C129.91 104.74 129.89 104.8 129.84 104.85C129.79 104.9 129.72 104.93 129.63 104.94L129.92 105.27H129.69L129.42 104.94H129.33V105.27H129.14V104.39H129.56V104.38ZM129.34 104.54V104.78H129.56C129.61 104.78 129.65 104.77 129.68 104.75C129.71 104.73 129.72 104.7 129.72 104.66C129.72 104.62 129.71 104.59 129.68 104.57C129.65 104.55 129.61 104.54 129.56 104.54H129.34V104.54ZM128.21 73.46V72.3H128.68V72.06H127.49V72.3H127.96V73.46H128.21ZM130.52 73.46V72.06H130.16L129.74 73.02L129.32 72.06H128.96V73.46H129.22V72.41L129.61 73.32H129.88L130.27 72.41V73.47H130.52V73.46ZM70.21 80.42C70.49 80.66 70.79 80.9 71.08 81.14C65.37 84.94 58.52 87.16 51.15 87.16C31.27 87.16 15.15 71.04 15.15 51.16C15.15 31.28 31.27 15.16 51.15 15.16C58.52 15.16 65.37 17.38 71.08 21.18C70.79 21.42 70.49 21.65 70.21 21.9C61.73 29.28 56.86 39.95 56.86 51.16C56.87 62.37 61.73 73.04 70.21 80.42ZM95.65 15.16C88.28 15.16 81.43 17.38 75.72 21.18C76.01 21.42 76.31 21.65 76.59 21.9C85.07 29.28 89.94 39.94 89.94 51.16C89.94 62.38 85.08 73.04 76.6 80.42C76.32 80.66 76.02 80.9 75.73 81.14C81.44 84.94 88.29 87.16 95.66 87.16C115.54 87.16 131.66 71.04 131.66 51.16C131.65 31.27 115.53 15.16 95.65 15.16ZM73.4 22.87C72.94 23.23 72.48 23.61 72.04 24C64.45 30.6 59.65 40.32 59.65 51.16C59.65 62 64.45 71.72 72.04 78.32C72.48 78.71 72.94 79.08 73.4 79.45C73.86 79.08 74.32 78.71 74.76 78.32C82.35 71.72 87.15 62 87.15 51.16C87.15 40.32 82.35 30.6 74.76 24C74.32 23.61 73.87 23.23 73.4 22.87Z" fill="white"/>
</svg>
