<svg width="56" height="64" viewBox="0 0 56 64" fill="none" xmlns="http://www.w3.org/2000/svg">
<path d="M41.0779 25.5085V25.0335C41.0739 24.4331 40.6939 23.8996 40.1278 23.6997V23.1333C40.1259 22.5313 39.7454 21.9957 39.1777 21.7957V14.4949C39.7454 14.2949 40.1259 13.7593 40.1278 13.1573V12.3194L40.9934 10.5881L42.3638 9.21771C42.5493 9.0325 42.5496 8.732 42.3644 8.54651C42.3375 8.51967 42.3076 8.49613 42.2752 8.47642L28.4989 0.0696008C28.3471 -0.0232003 28.1562 -0.0232003 28.0044 0.0696008L14.228 8.47642C14.0041 8.6127 13.9331 8.90468 14.0693 9.12859C14.089 9.16099 14.1126 9.19094 14.1394 9.21771L15.5098 10.5881L16.3754 12.3194V13.1573C16.3773 13.7592 16.7578 14.2949 17.3256 14.4948V21.7956C16.7578 21.9956 16.3773 22.5312 16.3754 23.1332V23.6996C15.8093 23.8995 15.4293 24.433 15.4253 25.0334V25.5084C14.6386 25.5093 14.001 26.1469 14.0002 26.9336V27.8837C14.0001 28.146 14.2127 28.3587 14.475 28.3587C14.4751 28.3587 14.4752 28.3587 14.4752 28.3587H42.028C42.2903 28.3588 42.503 28.1462 42.503 27.8839C42.503 27.8839 42.503 27.8837 42.503 27.8837V26.9336C42.5022 26.1469 41.8646 25.5093 41.0779 25.5085ZM39.1777 13.1573C39.1774 13.4195 38.965 13.6321 38.7027 13.6323H35.8524C35.5902 13.632 35.3776 13.4195 35.3774 13.1573V12.6822H39.1778V13.1573H39.1777ZM15.9709 9.70577L15.2379 8.97277L28.2516 1.03151L41.2653 8.97277L40.5323 9.70577L28.5008 2.30172C28.348 2.20753 28.1553 2.20753 28.0025 2.30172L15.9709 9.70577ZM30.1518 6.74415C30.1518 7.79358 29.3011 8.64432 28.2516 8.64432C27.2022 8.64432 26.3515 7.79358 26.3515 6.74415C26.3515 5.69472 27.2022 4.84398 28.2516 4.84398C29.3006 4.8451 30.1507 5.69517 30.1518 6.74415ZM17.1442 11.7321L16.6692 10.782H39.8342L39.3591 11.7321H17.1442ZM34.4272 12.6822V13.1573C34.4269 13.4195 34.2145 13.6321 33.9522 13.6323H31.1019C30.8397 13.632 30.6271 13.4195 30.6269 13.1573V12.6822H34.4272ZM25.8764 12.6822V13.1573C25.8762 13.4195 25.6636 13.6321 25.4014 13.6323H22.5511C22.2889 13.632 22.0763 13.4195 22.0761 13.1573V12.6822H25.8764ZM21.1259 12.6822V13.1573C21.1257 13.4195 20.9132 13.6321 20.6509 13.6323H17.8006C17.5384 13.632 17.3258 13.4195 17.3256 13.1573V12.6822H21.1259ZM21.1259 23.6083H17.3256V23.1333C17.3258 22.871 17.5383 22.6585 17.8006 22.6583H20.6509C20.9131 22.6586 21.1257 22.871 21.1259 23.1333V23.6083H21.1259ZM21.1259 21.7957V14.4949C21.3014 14.4326 21.4627 14.3364 21.601 14.2118C21.7392 14.3364 21.9006 14.4326 22.076 14.4948V21.7956C21.9006 21.8579 21.7392 21.9541 21.601 22.0788C21.4627 21.9542 21.3014 21.858 21.1259 21.7957ZM25.8764 23.6083H22.0761V23.1333C22.0763 22.871 22.2889 22.6585 22.5511 22.6583H25.4014C25.6636 22.6586 25.8762 22.871 25.8764 23.1333V23.6083H25.8764ZM29.6768 23.1332V23.6083H26.8265V23.1332C26.8247 22.5313 26.4442 21.9956 25.8764 21.7956V14.4949C26.4442 14.2949 26.8246 13.7593 26.8265 13.1573V12.6822H29.6768V13.1573C29.6786 13.7592 30.0591 14.2949 30.6269 14.4948V21.7956C30.0591 21.9956 29.6786 22.5313 29.6768 23.1332ZM34.4272 23.6083H30.6269V23.1333C30.6272 22.871 30.8397 22.6585 31.1019 22.6583H33.9522C34.2145 22.6586 34.427 22.871 34.4272 23.1333V23.6083V23.6083ZM34.4272 21.7957V14.4949C34.6026 14.4326 34.764 14.3364 34.9023 14.2118C35.0405 14.3364 35.2019 14.4326 35.3773 14.4948V21.7956C35.2019 21.8579 35.0405 21.9541 34.9023 22.0788C34.7641 21.9542 34.6026 21.858 34.4272 21.7957ZM39.1777 23.6083H35.3773V23.1333C35.3776 22.871 35.5902 22.6585 35.8524 22.6583H38.7026C38.9649 22.6586 39.1774 22.871 39.1777 23.1333V23.6083H39.1777Z" fill="white"/>
<path d="M28.2516 7.69425C28.7763 7.69425 29.2017 7.26887 29.2017 6.74414C29.2017 6.21941 28.7763 5.79403 28.2516 5.79403C27.7269 5.79403 27.3015 6.21941 27.3015 6.74414C27.3015 7.26887 27.7269 7.69425 28.2516 7.69425Z" fill="white"/>
<circle cx="28.2515" cy="21.806" r="4.80041" fill="#D55D44" stroke="white" stroke-width="1.31039"/>
<path d="M31.0486 20.3379L29.4008 18.8848V19.8258H23.8278V20.8513H29.4008V21.791L31.0486 20.3379Z" fill="white"/>
<path d="M25.4543 23.2567L27.1021 21.8036V22.7447H32.6751V23.7701H27.1021V24.7098L25.4543 23.2567Z" fill="white"/>
<path d="M19.6265 58.3593H16.2205C15.8392 58.3593 15.5229 58.2726 15.2715 58.0993C15.0289 57.9173 14.8599 57.6876 14.7645 57.4103L13.6465 54.1083H6.44454L5.32654 57.4103C5.23987 57.653 5.07087 57.874 4.81954 58.0733C4.5682 58.264 4.26054 58.3593 3.89654 58.3593H0.464538L7.79654 39.4183H12.2945L19.6265 58.3593ZM7.45854 51.1183H12.6325L10.8905 45.9313C10.7779 45.602 10.6435 45.2163 10.4875 44.7743C10.3402 44.3236 10.1929 43.8383 10.0455 43.3183C9.90687 43.847 9.76387 44.3366 9.61654 44.7873C9.4692 45.238 9.33054 45.628 9.20054 45.9573L7.45854 51.1183ZM33.1084 53.4583C33.2124 53.4583 33.3164 53.48 33.4204 53.5233C33.5244 53.558 33.624 53.623 33.7194 53.7183L35.4614 55.5513C34.6987 56.548 33.741 57.302 32.5884 57.8133C31.4444 58.316 30.088 58.5673 28.5194 58.5673C27.0807 58.5673 25.7894 58.3246 24.6454 57.8393C23.51 57.3453 22.5437 56.6693 21.7464 55.8113C20.9577 54.9446 20.351 53.922 19.9264 52.7433C19.5017 51.556 19.2894 50.269 19.2894 48.8823C19.2894 47.4696 19.532 46.174 20.0174 44.9953C20.5027 43.808 21.1787 42.7853 22.0454 41.9273C22.9207 41.0693 23.965 40.402 25.1784 39.9253C26.3917 39.4486 27.7307 39.2103 29.1954 39.2103C29.906 39.2103 30.5734 39.2753 31.1974 39.4053C31.83 39.5266 32.4194 39.7 32.9654 39.9253C33.5114 40.142 34.014 40.4063 34.4734 40.7183C34.9327 41.0216 35.34 41.3596 35.6954 41.7323L34.2134 43.7213C34.118 43.8426 34.0054 43.9553 33.8754 44.0593C33.7454 44.1546 33.5634 44.2023 33.3294 44.2023C33.1734 44.2023 33.026 44.1676 32.8874 44.0983C32.7487 44.029 32.6014 43.9466 32.4454 43.8513C32.2894 43.7473 32.116 43.639 31.9254 43.5263C31.7434 43.405 31.5224 43.2966 31.2624 43.2013C31.011 43.0973 30.712 43.0106 30.3654 42.9413C30.0274 42.872 29.6287 42.8373 29.1694 42.8373C28.372 42.8373 27.644 42.9803 26.9854 43.2663C26.3267 43.5436 25.759 43.9466 25.2824 44.4753C24.8144 44.9953 24.446 45.628 24.1774 46.3733C23.9174 47.1186 23.7874 47.955 23.7874 48.8823C23.7874 49.853 23.9174 50.7153 24.1774 51.4693C24.446 52.2233 24.8057 52.8603 25.2564 53.3803C25.7157 53.8916 26.2487 54.2816 26.8554 54.5503C27.462 54.819 28.112 54.9533 28.8054 54.9533C29.204 54.9533 29.568 54.936 29.8974 54.9013C30.2267 54.858 30.53 54.7886 30.8074 54.6933C31.0934 54.598 31.362 54.4766 31.6134 54.3293C31.8734 54.1733 32.1334 53.9826 32.3934 53.7573C32.4974 53.6706 32.61 53.6013 32.7314 53.5493C32.8527 53.4886 32.9784 53.4583 33.1084 53.4583ZM54.0052 58.3593H49.5852V50.3513H41.8892V58.3593H37.4692V39.4183H41.8892V47.3353H49.5852V39.4183H54.0052V58.3593Z" fill="white"/>
</svg>
