<svg width="146" height="45" viewBox="0 0 146 45" fill="none" xmlns="http://www.w3.org/2000/svg">
<g clip-path="url(#clip0)">
<path fill-rule="evenodd" clip-rule="evenodd" d="M18.5578 0.370031H0.158314L0 1.23343C14.3186 4.70467 23.7998 13.092 27.7224 23.1886L23.7294 3.91175C23.0434 1.25106 21.0381 0.458134 18.5578 0.370031ZM11.7855 7.96446L22.4101 44.3331L34.9696 44.3155L53.6506 0.792922H41.0735L29.4463 30.5363L28.2149 26.0431C25.9282 20.6336 19.4198 12.863 11.7855 7.96446ZM51.0296 44.3684H62.9031L70.3263 0.740062H58.4528L51.0296 44.3684ZM70.3263 42.6944C73.1055 43.9102 78.2419 44.9675 83.5542 45.0203C96.0434 45.0203 104.135 39.1703 104.205 30.1134C104.24 25.1444 101.074 21.3736 94.2316 18.2548C90.0803 16.2285 87.5472 14.8893 87.5648 12.8453C87.5648 11.0304 89.7284 9.09217 94.3723 9.09217C98.2598 9.03931 101.074 9.88509 103.255 10.7661L104.328 11.2771L105.929 1.83253C103.59 0.95151 99.8957 0 95.3046 0C83.5894 0 75.3219 5.92048 75.2516 14.3959C75.1812 20.6512 81.1443 24.1577 85.6475 26.2369C90.2562 28.369 91.8041 29.7434 91.7865 31.6464C91.7689 34.5714 88.1101 35.9105 84.6976 35.9105C79.9482 35.9105 77.4152 35.2586 73.5277 33.6199L71.9974 32.9327L70.3263 42.6944ZM133.546 37.8488C133.898 39.3818 134.988 44.386 134.988 44.386H146L136.378 0.792922H127.214C124.381 0.792922 122.253 1.56822 121.004 4.40512L103.379 44.386H115.85C115.85 44.386 117.891 39.0117 118.348 37.8312C118.984 37.8312 121.998 37.8351 125.193 37.8392C128.797 37.8438 132.632 37.8488 133.546 37.8488ZM126.968 15.4325C127.302 14.5616 127.741 13.413 128.058 12.5458L128.867 16.2989C128.867 16.2989 131.136 26.7126 131.611 28.8976H121.76C122.746 26.3779 126.492 16.7042 126.492 16.7042C126.459 16.7623 126.672 16.2072 126.968 15.4325Z" fill="white"/>
</g>
<defs>
<clipPath id="clip0">
<rect width="146" height="45" fill="white"/>
</clipPath>
</defs>
</svg>
